<?xml version="1.0" standalone="no"?>
<!DOCTYPE svg PUBLIC "-//W3C//DTD SVG 20010904//EN"
 "http://www.w3.org/TR/2001/REC-SVG-20010904/DTD/svg10.dtd">
<svg version="1.0" xmlns="http://www.w3.org/2000/svg"
 width="512.000000pt" height="512.000000pt" viewBox="0 0 512.000000 512.000000"
 preserveAspectRatio="xMidYMid meet">
<metadata>
Created by potrace 1.15, written by Peter Selinger 2001-2017
</metadata>
<g transform="translate(0.000000,512.000000) scale(0.100000,-0.100000)"
fill="#000000" stroke="none">
<path d="M259 4861 l-259 -259 0 -108 0 -108 76 74 c97 94 542 540 609 609
l49 51 -108 0 -108 0 -259 -259z"/>
<path d="M709 4411 l-709 -708 0 -109 0 -108 76 74 c102 100 1445 1443 1509
1509 l49 51 -108 0 -109 0 -708 -709z"/>
<path d="M2075 5113 c-294 -40 -607 -214 -784 -436 -28 -36 -51 -68 -51 -72 0
-3 -14 -27 -31 -51 -46 -68 -125 -239 -149 -324 -39 -141 -50 -251 -50 -517
l0 -252 44 44 c53 53 133 81 201 71 l42 -7 7 53 c15 108 77 197 170 243 61 30
92 32 332 20 182 -9 272 -1 414 36 158 42 311 115 445 214 52 39 98 65 112 65
26 0 58 -30 121 -108 18 -23 36 -42 40 -42 4 0 15 30 25 68 22 82 90 229 147
312 23 34 74 95 112 135 l69 73 -47 29 c-25 15 -74 57 -107 92 -34 35 -98 90
-142 122 -44 32 -88 65 -97 73 -41 36 -182 95 -303 126 -38 10 -69 23 -67 29
2 11 -380 14 -453 4z"/>
<path d="M3129 5031 l-93 -89 40 -11 c21 -6 62 -15 90 -21 l52 -11 58 60 c33
32 81 82 109 110 l49 51 -106 0 -106 0 -93 -89z"/>
<path d="M4003 5005 l-118 -115 113 0 113 0 65 68 c36 37 86 88 112 115 l46
47 -106 0 -107 0 -118 -115z"/>
<path d="M4809 4912 l-211 -209 63 -50 63 -50 198 201 198 201 0 58 0 57 -50
0 -50 0 -211 -208z"/>
<path d="M5052 4252 c-35 -34 -61 -68 -59 -75 3 -6 13 -42 23 -79 10 -38 21
-68 24 -68 3 0 23 17 43 38 l38 39 -3 104 -3 104 -63 -63z"/>
<path d="M5025 3327 l-86 -83 23 -82 c13 -45 26 -82 29 -82 4 0 34 28 68 63
l61 62 0 103 c0 56 -2 102 -5 102 -2 0 -43 -37 -90 -83z"/>
<path d="M47 2847 l-47 -51 0 -105 0 -105 34 33 c29 28 36 43 41 90 3 31 10
85 15 121 5 35 8 65 7 66 -1 2 -24 -20 -50 -49z"/>
<path d="M5083 2481 c-31 -31 -33 -38 -33 -105 0 -39 -3 -89 -6 -111 l-6 -40
41 41 42 40 -3 105 -3 104 -32 -34z"/>
<path d="M52 1953 l-52 -57 0 -105 0 -106 76 76 75 75 -17 75 c-9 41 -19 80
-23 86 -4 8 -25 -7 -59 -44z"/>
<path d="M4901 1403 c-162 -162 -224 -231 -279 -313 -176 -261 -413 -497 -677
-673 -63 -42 -142 -112 -262 -232 -95 -95 -173 -176 -173 -179 0 -3 47 -6 104
-6 l105 0 700 701 701 700 0 105 c0 57 -3 104 -6 104 -3 0 -99 -93 -213 -207z"/>
<path d="M168 1170 l-168 -170 0 -107 0 -107 76 74 c270 265 345 342 342 348
-12 28 -74 132 -78 132 -3 0 -80 -77 -172 -170z"/>
<path d="M353 455 l-353 -354 0 -51 0 -50 58 0 58 0 354 351 353 350 -54 55
c-29 30 -56 54 -59 54 -3 0 -164 -160 -357 -355z"/>
<path d="M4759 362 c-192 -192 -349 -352 -349 -355 0 -4 46 -7 103 -7 l104 0
251 251 252 252 0 103 c0 57 -3 104 -6 104 -4 0 -163 -157 -355 -348z"/>
<path d="M1003 206 c-106 -107 -193 -197 -193 -200 0 -3 46 -6 103 -6 l102 1
145 142 c80 78 151 149 158 158 11 14 4 22 -53 58 -37 22 -67 41 -68 41 -1 0
-89 -88 -194 -194z"/>
<path d="M1758 60 c-27 -27 -48 -52 -48 -55 0 -3 46 -5 103 -5 102 0 104 0
132 30 16 16 27 31 24 33 -4 4 -155 47 -161 47 -1 0 -24 -23 -50 -50z"/>
</g>
</svg>
